<svg xmlns="http://www.w3.org/2000/svg" width="24" height="24" viewBox="0 0 24 24">
  <g id="Group_16834" data-name="Group 16834" transform="translate(7.603 7.327)">
    <rect id="Rectangle_1975" data-name="Rectangle 1975" width="24" height="24" transform="translate(-7.603 -7.327)" fill="none" opacity="0"/>
    <path id="_Icon_Сolor" data-name="🎨 Icon Сolor" d="M10,14a4.049,4.049,0,0,1-2.942-1.249L1.046,6.41A3.7,3.7,0,0,1,.46,2.049,3.979,3.979,0,0,1,3.985,0h12.03A3.979,3.979,0,0,1,19.54,2.05a3.693,3.693,0,0,1-.583,4.358l-6.018,6.347A4.047,4.047,0,0,1,10,14ZM3.985,2.8a1.122,1.122,0,0,0-1,.561A.957.957,0,0,0,3.139,4.5l6.014,6.343a1.2,1.2,0,0,0,1.691,0L16.863,4.5a.955.955,0,0,0,.153-1.141,1.122,1.122,0,0,0-1-.562Z" transform="translate(-2.602 14.673) rotate(-90)" fill="#fff"/>
  </g>
</svg>
