<svg xmlns="http://www.w3.org/2000/svg" width="24" height="24" viewBox="0 0 24 24">
  <g id="Group_16834" data-name="Group 16834" transform="translate(7.603 7.327)">
    <rect id="Rectangle_1975" data-name="Rectangle 1975" width="24" height="24" transform="translate(-7.603 -7.327)" fill="none" opacity="0"/>
    <path id="_Icon_Сolor" data-name="🎨 Icon Сolor" d="M8,12a3.139,3.139,0,0,1-2.354-1.07L.836,5.494A3.34,3.34,0,0,1,.368,1.756,3.154,3.154,0,0,1,3.188,0h9.624a3.154,3.154,0,0,1,2.82,1.757,3.339,3.339,0,0,1-.466,3.735l-4.814,5.44A3.137,3.137,0,0,1,8,12ZM3.188,2.4a.887.887,0,0,0-.8.481.865.865,0,0,0,.124.98L7.322,9.3a.912.912,0,0,0,1.353,0l4.816-5.442a.863.863,0,0,0,.122-.978.887.887,0,0,0-.8-.482Z" transform="translate(-1.602 12.673) rotate(-90)" fill="#30343f"/>
  </g>
</svg>
